<svg xmlns="http://www.w3.org/2000/svg" width="26.624" height="25.375" viewBox="0 0 26.624 25.375">
    <g id="Ellipse_1_copy_2_2_" transform="translate(0 0.023)">
        <g id="Сгруппировать_2" transform="translate(0 0)">
            <path id="Контур_7" d="M20.786,8.549A60.115,60.115,0,0,0,13.3.1,54.574,54.574,0,0,0,6.976,6.986C1.218,14.348-1.435,22.027.71,24.587c2.164,2.582,8.6-.77,14.733-7.928C17.418,14.371,20.918,8.753,20.786,8.549Z" transform="translate(0.029 -0.1)" fill="#fff" fill-rule="evenodd" opacity="0.9"/>
        </g>
    </g>
    <g id="Ellipse_1_copy_2_" transform="translate(5.834)">
        <g id="Сгруппировать_1">
            <path id="Контур_6" d="M44.772,6.886A54.546,54.546,0,0,0,38.468,0,57.617,57.617,0,0,0,30.98,8.449c-.151.2,3.349,5.822,5.325,8.132,6.115,7.158,12.55,10.51,14.714,7.928C53.182,21.95,50.51,14.271,44.772,6.886Z" transform="translate(-30.975)" fill="#fff" fill-rule="evenodd" opacity="0.9"/>
        </g>
    </g>
</svg>
